<?xml version="1.0" encoding="UTF-8" standalone="no"?>
<!DOCTYPE svg PUBLIC "-//W3C//DTD SVG 1.1//EN" "http://www.w3.org/Graphics/SVG/1.1/DTD/svg11.dtd">
<svg version="1.1" xmlns="http://www.w3.org/2000/svg" xmlns:xlink="http://www.w3.org/1999/xlink" preserveAspectRatio="xMidYMid meet" viewBox="0 0 640 640" width="640" height="640"><defs><path d="M213.43 197.37C213.43 224.16 191.35 245.91 164.16 245.91C136.97 245.91 114.89 224.16 114.89 197.37C114.89 170.58 136.97 148.83 164.16 148.83C191.35 148.83 213.43 170.58 213.43 197.37Z" id="fflzSo19x"></path><path d="M329.15 207.01C329.15 221.71 317.7 233.65 303.6 233.65C289.51 233.65 278.06 221.71 278.06 207.01C278.06 192.3 289.51 180.36 303.6 180.36C317.7 180.36 329.15 192.3 329.15 207.01Z" id="ejLIxqVVn"></path><path d="M184.23 184.6L180.58 207.23L322.92 210.15L184.23 184.6Z" id="cBytKdvJ5"></path><path d="M187.67 218.91L169.78 233.02L242.23 309.42L187.67 218.91Z" id="b1WH50N9NH"></path><path d="M204.31 197.37C204.31 219.53 186.32 237.52 164.16 237.52C142 237.52 124.01 219.53 124.01 197.37C124.01 175.22 142 157.23 164.16 157.23C186.32 157.23 204.31 175.22 204.31 197.37Z" id="c19tqeDVvT"></path><path d="M207.74 199.56C207.74 221.72 189.75 239.71 167.59 239.71C145.43 239.71 127.45 221.72 127.45 199.56C127.45 177.4 145.43 159.42 167.59 159.42C189.75 159.42 207.74 177.4 207.74 199.56Z" id="ayzrf8pC"></path><path d="M250.33 294.5L232.57 280.22L305.72 204.49L250.33 294.5Z" id="a1mx5g8X2"></path><path d="M268.53 287.77C272.24 307.94 258.88 327.32 238.72 331.04C218.55 334.75 199.16 321.39 195.45 301.22C191.74 281.05 205.1 261.67 225.26 257.96C245.43 254.24 264.82 267.6 268.53 287.77Z" id="c4QXusphR"></path></defs><g><g><g><use xlink:href="#fflzSo19x" opacity="1" fill="#064e0d" fill-opacity="1"></use></g><g><use xlink:href="#ejLIxqVVn" opacity="1" fill="#064e0d" fill-opacity="1"></use></g><g><use xlink:href="#cBytKdvJ5" opacity="1" fill="#064e0d" fill-opacity="1"></use><g><use xlink:href="#cBytKdvJ5" opacity="1" fill-opacity="0" stroke="#000000" stroke-width="0" stroke-opacity="1"></use></g></g><g><use xlink:href="#b1WH50N9NH" opacity="1" fill="#064e0d" fill-opacity="1"></use><g><use xlink:href="#b1WH50N9NH" opacity="1" fill-opacity="0" stroke="#000000" stroke-width="0" stroke-opacity="1"></use></g></g><g><use xlink:href="#c19tqeDVvT" opacity="1" fill="#ffffff" fill-opacity="1"></use></g><g><use xlink:href="#ayzrf8pC" opacity="1" fill="#064e0d" fill-opacity="1"></use></g><g><use xlink:href="#a1mx5g8X2" opacity="1" fill="#064e0d" fill-opacity="1"></use><g><use xlink:href="#a1mx5g8X2" opacity="1" fill-opacity="0" stroke="#000000" stroke-width="0" stroke-opacity="1"></use></g></g><g><use xlink:href="#c4QXusphR" opacity="1" fill="#064e0d" fill-opacity="1"></use></g></g></g></svg>